<?xml version="1.0" encoding="UTF-8"?>
<svg version="1.1" xmlns="http://www.w3.org/2000/svg" width="574" height="435">
<path d="M0 0 C0.85999857 10.98887061 -1.74005439 20.98556545 -4.3125 31.5625 C-4.72188511 33.29334065 -5.13009572 35.02445953 -5.53710938 36.75585938 C-7.34660095 44.40766954 -9.23693295 52.02477718 -11.34545898 59.6003418 C-12.4773566 63.75007013 -13.45810465 67.92311267 -14.375 72.125 C-14.57738281 72.95386719 -14.77976562 73.78273438 -14.98828125 74.63671875 C-16.31541277 80.82677015 -15.86027146 85.31625829 -13 91 C-9.43596362 96.3556871 -5.24133543 98.95663071 0.3125 101.875 C1.05306641 102.2771875 1.79363281 102.679375 2.55664062 103.09375 C4.3650268 104.07377864 6.18169507 105.03849915 8 106 C8 106.66 8 107.32 8 108 C8.639375 108.28875 9.27875 108.5775 9.9375 108.875 C12 110 12 110 13 112 C13.34733262 117.29682248 13.49299205 120.70093287 10 125 C9.34 125 8.68 125 8 125 C8 125.66 8 126.32 8 127 C7.34 127 6.68 127 6 127 C6 127.66 6 128.32 6 129 C5.34 129 4.68 129 4 129 C4 129.66 4 130.32 4 131 C2.390625 132.65625 2.390625 132.65625 0.25 134.5 C-0.44609375 135.1084375 -1.1421875 135.716875 -1.859375 136.34375 C-4 138 -4 138 -6.203125 139.03125 C-8.35632919 139.9273424 -8.35632919 139.9273424 -9 143 C-10.6015625 144.578125 -10.6015625 144.578125 -12.625 146.25 C-16.15370094 149.22654809 -19.38509741 152.36097517 -22.5546875 155.71484375 C-24 157 -24 157 -26 157 C-26 157.66 -26 158.32 -26 159 C-26.66 159 -27.32 159 -28 159 C-28 159.66 -28 160.32 -28 161 C-28.66 161 -29.32 161 -30 161 C-30.33 161.99 -30.66 162.98 -31 164 C-32.6015625 165.578125 -32.6015625 165.578125 -34.625 167.25 C-38.15370094 170.22654809 -41.38509741 173.36097517 -44.5546875 176.71484375 C-46 178 -46 178 -48 178 C-48 178.66 -48 179.32 -48 180 C-49.43359375 181.41015625 -49.43359375 181.41015625 -51.4375 183.0625 C-55.58961788 186.57070655 -59.35807233 190.35450405 -63.1171875 194.27734375 C-65 196 -65 196 -67 196 C-67 196.66 -67 197.32 -67 198 C-67.66 198 -68.32 198 -69 198 C-69 198.66 -69 199.32 -69 200 C-69.66 200 -70.32 200 -71 200 C-71 200.66 -71 201.32 -71 202 C-73.09595521 204.04763347 -75.39870926 205.65635809 -78 207 C-80.9375 206.8125 -80.9375 206.8125 -83 206 C-83.38706846 199.52018718 -82.69080129 193.96491415 -80.984375 187.71875 C-79.71492807 182.92306159 -78.64359561 178.09105229 -77.5625 173.25 C-76.09043863 166.71050222 -74.58240149 160.18576468 -72.9375 153.6875 C-72.62296875 152.43195313 -72.3084375 151.17640625 -71.984375 149.8828125 C-71.474633 147.85736826 -70.95647857 145.8349874 -70.42382812 143.81542969 C-66.36399072 128.68208463 -66.36399072 128.68208463 -71 114 C-71 113.34 -71 112.68 -71 112 C-71.66 112 -72.32 112 -73 112 C-73 111.34 -73 110.68 -73 110 C-74.423125 109.5359375 -74.423125 109.5359375 -75.875 109.0625 C-79 108 -79 108 -81 107 C-81 106.34 -81 105.68 -81 105 C-81.56460938 104.89300781 -82.12921875 104.78601563 -82.7109375 104.67578125 C-85.37679223 103.8887627 -87.30766742 102.71817954 -89.625 101.1875 C-90.40101562 100.68605469 -91.17703125 100.18460937 -91.9765625 99.66796875 C-94.63759434 97.47441547 -95.77918416 95.41453146 -96.31274414 91.99658203 C-95.97321426 84.03005174 -91.00281549 80.0577247 -85.4375 74.875 C-84.11395508 73.59302734 -84.11395508 73.59302734 -82.76367188 72.28515625 C-78.17578412 67.8702044 -73.47096624 63.61153906 -68.6550293 59.44775391 C-66.75556263 57.7861759 -64.95241005 56.05355771 -63.1875 54.25 C-62.37345703 53.42242187 -62.37345703 53.42242187 -61.54296875 52.578125 C-60.48829494 51.49942064 -59.44978796 50.40473338 -58.42578125 49.296875 C-57 48 -57 48 -55 48 C-54.74605469 47.40832031 -54.49210937 46.81664062 -54.23046875 46.20703125 C-52.86446788 43.7569027 -51.47063789 42.4640418 -49.3125 40.6875 C-46.58814836 38.38530014 -43.99338129 36.0507004 -41.5 33.5 C-38.4071426 30.35039293 -35.14944435 27.44792437 -31.796875 24.578125 C-29.98031867 23.03198806 -29.98031867 23.03198806 -28.390625 21.296875 C-27 20 -27 20 -25 20 C-24.34 18.68 -23.68 17.36 -23 16 C-22.34 16 -21.68 16 -21 16 C-21 15.34 -21 14.68 -21 14 C-19.53125 12.51953125 -19.53125 12.51953125 -17.5 10.8125 C-15.24067421 8.90906801 -13.01265234 7.0119353 -10.86328125 4.984375 C-10.18652344 4.35015625 -9.50976562 3.7159375 -8.8125 3.0625 C-8.20019531 2.47597656 -7.58789062 1.88945313 -6.95703125 1.28515625 C-4.48944451 -0.33527497 -2.89629154 -0.09784166 0 0 Z " fill="#00ffd5" transform="translate(181,114)"/>
</svg>
